Patient4_TMGait_0pt6_02_left_29_EMG.mot
version=1
nRows=36
nColumns=33
inDegrees=no
endheader
time	1LAddLong	2LGlutMax	3LGlutMed	4LIliopsoas	5LSemiMemb	6LBicFemLong	7LRecFem	8LVastMed	9LVastLat	10LGasMed	11LTibAnt	12lTibPost	13LPeroneusLong	14LSol	15LExtDigLong	16LFlexDigLong	17RAddLong	18RGlutMax	19RGlutMed	20RIliopsoas	21RSemiMemb	22RBicFemLong	23RRecFem	24RVastMed	25RVastLat	26RGasMed	27RTibAnt	28RTibPost	29RPeroneusLong	30RSol	31RExtDigLong	32RFlexDigLong
36.305	0.009308	-0.21576	-0.071106	0.000305	-0.041809	-0.18356	0.40253	0.006409	0.005951	0.095978	-0.016174	-0.06012	0.12924	-0.024414	0.004272	-0.016327	0.004883	-0.17883	-0.1059	0.30319	0.30762	-0.090027	-0.10315	-0.052185	-0.18478	-0.005188	0.26504	-0.003357	-0.024567	-0.008545	-0.006409	-0.009155
36.306	0.006409	-0.19669	-0.07431	0.005798	-0.004425	-0.1178	0.3804	0.001526	0.013123	0.1207	-0.007477	-0.05127	0.10407	-0.14877	-0.027924	-0.14206	0.035553	-0.16647	-0.06134	0.14725	0.30609	-0.076752	-0.049896	-0.20401	-0.21652	-0.003052	0.36514	0.000153	0.049896	-0.026855	-0.003204	-0.003967
36.307	-0.00061	-0.21851	-0.07782	0.020142	0.072327	-0.052643	0.35309	0.002136	0.008087	-0.003357	-0.008392	0.44693	0.05188	0.026703	-0.004883	-0.048065	0.041199	-0.17044	-0.023346	0	0.2626	-0.046844	-0.069733	-0.18662	-0.079956	0.007172	0.1297	-0.002441	0.1712	-0.010223	-0.006104	0.002289
36.308	0.013275	-0.20798	-0.0737	0.008698	0.025635	-0.076904	0.34882	0.014496	0.004578	-0.21881	-0.000305	-0.12604	0.019684	0.16724	0.025177	-0.007324	0.018768	-0.19928	-0.010223	0.008392	0.15961	0.049591	-0.059662	-0.26199	0.33432	-0.001373	-0.14252	-0.002441	0.20615	-0.02243	-0.006256	-0.000458
36.309	0.015564	-0.19928	-0.089569	0.022583	-0.031586	-0.092621	0.33798	0.010986	-0.027008	-0.083313	0.007629	0.016785	-0.024261	0.20798	0.01709	-0.063019	0.023956	-0.27542	-0.01358	0.042267	0.24429	0.069885	-0.17578	-0.3215	0.45837	-0.000153	-0.013275	-0.005341	0.10788	-0.032654	-0.004883	-0.005035
36.31	0.000458	-0.18204	-0.093842	0.003815	0.035095	-0.11292	0.32501	0.010071	-0.035858	-0.05127	0.010071	0.014648	-0.1062	-0.021057	-0.011597	-0.06897	0.075378	-0.4155	0.012054	-0.000458	0.23727	-0.028076	-0.23254	-0.19989	0.64545	0.001526	-0.035248	-0.000305	-0.51392	-0.08606	-0.00885	-0.00061
36.311	0.009003	-0.19394	-0.11398	0.001526	0.099182	-0.085907	0.31433	0.01236	-0.062256	-0.44128	0.017548	-0.010834	-0.11032	-0.40817	-0.03891	-0.057831	0.10864	-0.3981	0.048065	-0.010071	0.21149	-0.037231	-0.052948	-0.098724	0.64316	-0.001678	-0.050659	-0.002747	-0.2655	-0.059967	0.002136	-0.007629
36.312	0.006256	-0.1799	-0.12848	0.014648	0.11032	-0.058289	0.29358	0.017853	-0.049744	-0.48218	0.017853	-0.00351	-0.10284	-0.44281	-0.025787	-0.037689	0.092773	-0.392	-0.032349	-0.007935	0.39719	-0.052795	0.17441	-0.1564	0.43686	-0.009766	-0.06134	-0.002289	0.005341	0.013275	-0.001526	-0.007019
36.313	-0.000763	-0.13657	-0.13107	0.001678	0.057678	-0.025024	0.27542	0.011444	-0.026093	-0.32623	0.013275	-0.008087	-0.10284	-0.10742	-0.019684	-0.036621	0.085754	-0.27268	-0.13001	-0.020905	0.36407	-0.076752	0.16632	-0.21454	0.2327	-0.011292	0.051422	-0.00412	0.040436	-0.009766	-0.004578	-0.011292
36.314	-0.000763	-0.11765	-0.13382	0.006256	-0.030823	-0.039673	0.28214	0.012665	-0.022583	-0.060577	0.013885	-0.019836	-0.12177	0.13214	-0.009918	0.017242	0.044098	-0.22308	-0.087433	-0.049744	0.19745	0.013733	-0.032501	-0.15747	0.12741	-0.012817	0.079041	-0.005951	0.014038	-0.036316	-0.003357	-0.001068
36.315	0.008392	-0.15823	-0.14725	0.021667	-0.09964	-0.082703	0.2623	0.016479	-0.037994	0.094604	0.005035	-0.023956	-0.12863	0.3421	0.014648	-0.56381	-0.012512	-0.11078	-0.22507	-0.075989	0.3035	0.14069	-0.14282	0.032043	0.32532	-0.010681	0.21774	-0.001221	-0.038757	-0.02121	-0.001526	-0.005798
36.316	0.032654	-0.16647	-0.14923	0.01236	-0.10498	-0.042725	0.23636	0.003662	-0.022583	0.26901	0.013123	-0.02655	-0.1062	0.40192	0.033264	0.27298	-0.023499	-0.000916	-0.13443	-0.10681	0.37247	0.15228	-0.18921	0.20096	0.66879	-0.005493	0.28336	-0.002747	-0.13062	-0.039673	-0.004272	0.00351
36.317	0.036621	-0.18204	-0.13123	0.006409	0.006256	-0.006866	0.24002	0.00824	-0.02655	0.41992	0.001831	-0.021515	-0.10056	0.29678	0.017395	0.22507	-0.044098	0.095978	-0.1622	-0.13046	0.3064	0.076294	-0.19714	0.10773	0.72647	0.00061	0.10407	-0.000305	-0.072784	-0.090027	-0.006104	-0.005188
36.318	0.028381	-0.17609	-0.12924	0.00061	0.11383	0.027161	0.23804	0.046997	-0.029602	0.24994	0.006104	-0.012054	-0.11292	0.28183	0.005493	0.037689	-0.047455	0.033722	-0.048523	-0.089722	0.26916	0.13107	-0.19012	0.022125	0.34958	-0.009308	0.24262	-0.005035	-0.063629	-0.065308	-0.006714	0.006866
36.319	0.02533	-0.16892	-0.12314	-0.000916	0.071411	0.036316	0.22034	-0.003204	-0.024109	0.19699	0.001831	-0.011749	-0.045624	0.29724	0.024567	-0.023193	-0.037689	-0.042114	0.050049	-0.007324	0.34729	0.045624	-0.091248	0.16724	-0.17029	-0.00946	0.25757	-0.006256	-0.17075	-0.022888	-0.002136	0.001068
36.32	0.021362	-0.15625	-0.11292	0.020142	0.029755	0.035553	0.1915	-0.005798	-0.017853	0.12299	-0.011749	-0.015411	0.040131	0.28778	0.028534	-0.027771	-0.065308	-0.093842	-0.14725	-0.058899	0.30319	0.005646	0.006714	0.28473	-0.4657	-0.001831	-0.02533	-0.00412	-0.06424	-0.06012	-0.000763	0.00946
36.321	0.021515	-0.11185	-0.12436	0.004425	0.007477	0.049133	0.16541	0.011749	-0.02243	-0.49774	-0.00824	-0.014343	-0.024109	0.19287	0.002747	-0.046692	-0.085907	-0.096588	-0.083466	-0.070496	0.17685	0.001221	0.11215	0.14008	-0.66528	0.00351	-0.30868	-0.001984	0.15335	-0.1062	-0.003662	0.006561
36.322	0.006256	-0.12817	-0.14084	0.00885	-0.014954	0.099335	0.18601	0.016327	-0.015564	-0.34347	-0.005646	-0.011749	-0.048523	0.15762	0.026855	0.10925	-0.079041	-0.12314	-0.07843	-0.036774	0.21637	-0.031738	0.004272	0.19623	-0.6485	0.004578	-0.2243	-0.006866	0.24933	-0.093384	0.004578	0.005035
36.323	0.000916	-0.12604	-0.1268	0.001526	-0.014038	0.055084	0.19608	0.023651	-0.037537	-0.29633	-0.005951	-0.015106	0.022278	0.034943	0.016022	-0.066223	-0.039673	-0.096741	-0.063629	0.010681	0.3241	-0.14755	-0.014191	0.23956	-0.63629	0.003204	-0.22476	-0.00351	0.21347	-0.032654	-0.006409	0.001831
36.324	-0.002441	-0.084076	-0.1268	0.007935	-0.033417	-0.054169	0.18585	0.019531	-0.03952	-0.36072	0.008087	-0.017548	-0.030212	-0.10284	0.00885	0.099792	-0.003052	-0.11612	-0.069275	0.082092	0.34698	-0.23529	0.069122	0.21927	-0.61081	-0.001068	-0.21683	-0.007477	0.11581	-0.043182	-0.002136	0.001373
36.325	0.002899	-0.094299	-0.15549	-0.001526	-0.039673	-0.1622	0.16464	0.017853	-0.041199	-0.51895	0.018158	-0.007019	-0.018311	-0.21881	-0.020447	0.19943	0.014038	-0.09964	0.020752	0.13687	0.13077	-0.15442	0.032806	0.11688	-0.54092	-0.000458	-0.10391	-0.008087	0.027161	0.003357	-0.003662	-0.011292
36.326	0.005798	-0.059814	-0.17914	0.010223	-0.019531	-0.19211	0.14801	0.01236	-0.021667	-0.50354	0.007782	0.000305	0.11322	-0.20004	0.001831	0.085144	0.010986	-0.017395	0.19134	0.086823	0.38132	-0.056458	0.015869	0.085144	-0.44937	-0.000458	-0.072174	-0.00885	0.076141	0.046234	0.002289	-0.007935
36.327	0.004425	-0.07309	-0.18997	0.009766	-0.007782	-0.060577	0.14114	0.01297	-0.009766	0.044556	-0.003357	0.006561	0.14114	-0.20386	0.072021	-0.73685	0.005493	0.031433	0.006409	0.055084	0.35431	0.091553	0.025787	0.055084	-0.23422	-0.002289	0.26184	-0.005646	0.086517	0.009918	-0.005341	0.001068
36.328	-0.001373	-0.057068	-0.16052	0.016785	-0.026398	0.04425	0.1619	0.015411	-0.022583	0.18295	-0.006866	0.014191	0.097198	-0.068207	0.030975	-0.103	-0.002441	0.093842	-0.067902	-0.009613	0.1976	0.26794	0.057068	0.061951	-0.008698	-0.006409	0.26993	-0.007172	0.009155	-0.024719	-0.001221	-0.011749
36.329	0.008087	-0.050201	-0.098724	0.013885	-0.083466	0.051727	0.15045	0.011292	-0.026855	0.38071	0.002289	0.004883	0.013428	-0.067596	-0.028992	0.20462	0.036774	0.14999	-0.18845	0.00946	0.18326	0.33676	0.081635	0.14511	0.066833	-0.008545	0.072784	-0.011292	0.002594	-0.057068	-0.004578	-0.011139
36.33	0.01709	-0.054626	-0.058441	0.006866	-0.088501	0.07843	0.14648	0.005188	-0.021362	0.45288	0.010071	0.006256	-0.049133	-0.027924	-0.036163	-0.29968	0.062866	0.14587	-0.25131	-0.054169	0.16647	0.1915	0.10834	0.44159	0.1091	-0.005951	0.039063	-0.001831	-0.004425	-0.040436	-0.002441	-0.002747
36.331	0.020599	-0.055847	-0.07431	0.006409	0.009003	0.14893	0.15152	0.006409	-0.009308	0.40222	0.004272	0.006714	-0.04303	-0.11032	-0.038452	0.46692	0.02533	0.088501	-0.22186	-0.15381	0.16098	-0.049286	-0.092926	0.30777	0.22797	-0.003967	-0.045013	-0.007782	-0.054016	-0.006866	0.003815	-0.007629
36.332	0.025482	-0.041199	-0.068207	0.002441	0.11871	0.12497	0.17395	0.009613	-0.021973	0.45151	-0.011749	0.039673	-0.002136	-0.28412	-0.046997	0.010071	0.017853	-0.083618	0.064392	-0.17807	0.15961	-0.1265	-0.13519	0.16068	0.30655	-0.001984	0.08194	-0.007019	-0.63797	-0.037537	-0.00412	-0.001221
36.333	0.011749	-0.084076	-0.073853	-0.001984	0.09079	0.10208	0.18799	0.016022	-0.03479	-0.22751	-0.012665	0.042419	0.012512	0.15045	-0.060425	-0.26993	-0.001526	-0.29877	-0.041046	-0.055847	0.12863	-0.082245	-0.098267	-0.022888	0.22827	-0.001373	0.21027	-0.003815	-0.68878	-0.082397	-0.005035	0.006256
36.334	0.014343	-0.087891	-0.088959	0.009003	0.039978	0.03479	0.18173	0.013885	-0.040741	-0.083008	0.001678	0.046692	0.001526	0.33142	-0.036774	0.2829	-0.010834	-0.42313	-0.19775	0.006104	0.048218	-0.059204	0.035553	-0.27741	0.089111	-0.007172	0.056305	-0.004272	0.23239	-0.012665	-0.002441	0.007935
36.335	0.012817	-0.050812	-0.11841	0.000916	-0.005493	0.066528	0.18402	0.011139	-0.039978	0.2623	0.000305	0.049896	-0.024719	0.13321	-0.05661	0.22553	0.014038	-0.35675	-0.37369	0.095978	-0.036011	-0.099945	0.14511	-0.41946	-0.16769	-0.008545	-0.11337	-0.00885	0.41931	0.01297	-0.003662	0.001678
36.336	0.005646	-0.016632	-0.10864	0.001678	-0.018311	0.079498	0.15625	0.010986	-0.027161	0.20126	0.008698	0.018158	-0.037384	0.16769	-0.035706	-0.60196	0.009308	-0.25711	-0.40451	0.21881	-0.063934	-0.19577	0.18921	-0.35645	-0.32318	-0.009155	-0.17395	-0.009003	0.50568	0.049438	-0.000763	0.004272
36.337	0.006714	0.008087	-0.049133	0.006409	-0.041351	0.10956	0.12299	0.011139	-0.018005	0.021667	0.011902	-0.018005	-0.04425	0.11673	-0.001373	-0.23514	0.001068	-0.16205	0.16281	0.19455	-0.007019	-0.22461	0.001678	-0.42694	-0.23682	-0.005798	-0.074005	-0.00412	0.11887	0.023346	-0.003357	0.000763
36.338	0.00412	0.030518	-0.057983	0.015411	0.016937	0.14755	0.13611	0.00885	-0.029755	-0.13641	0.013123	0.008087	-0.062866	-0.068359	0.005341	0.32044	0.003967	-0.08194	0.30945	-0.015411	0.20844	-0.17761	-0.032654	-0.31937	-0.14893	-0.005646	0.11169	-0.005341	0.34347	0.015564	-0.004425	-0.004578
36.339	0.003357	0.00824	-0.13886	0.036774	0.045166	-0.005951	0.10193	0.007629	-0.02655	-0.15747	0.020142	-0.019989	-0.10574	-0.37293	0.004578	0.33096	-0.005035	0.005188	0.19531	-0.076599	0.24612	-0.084229	0.009155	-0.030365	-0.15518	-0.00946	0.41245	-0.00946	0.26443	0.014648	-0.004578	-0.005951
36.34	0.001526	0.043335	-0.060272	-0.010071	0.00473	-0.057678	0.067749	0.011597	-0.002136	-0.097198	0.003204	-0.015869	-0.078735	-0.19333	0.02121	0.13901	0.006256	0.18021	0.072327	-0.059814	0.19196	-0.076599	-0.20416	0.085297	-0.12482	-0.013885	0.71182	-0.003967	0.13626	-0.003967	-0.004272	-0.007324
